<!DOCTYPE svg PUBLIC "-//W3C//DTD SVG 1.1//EN" "http://www.w3.org/Graphics/SVG/1.1/DTD/svg11.dtd">
<!-- Uploaded to: SVG Repo, www.svgrepo.com, Transformed by: SVG Repo Mixer Tools -->
<svg fill="#ffffff" height="800px" width="800px" version="1.1" id="Layer_1" xmlns="http://www.w3.org/2000/svg" xmlns:xlink="http://www.w3.org/1999/xlink" viewBox="0 0 191.991 191.991" xml:space="preserve" stroke="#ffffff">
<g id="SVGRepo_bgCarrier" stroke-width="0"/>
<g id="SVGRepo_tracerCarrier" stroke-linecap="round" stroke-linejoin="round"/>
<g id="SVGRepo_iconCarrier"> <g> <g> <g> <path d="M18.289,139.645c-4.187,4.189-6.493,9.757-6.493,15.678c0,4.669,1.453,9.106,4.112,12.831L0,184.064l5.225,5.225 l15.908-15.909c3.726,2.66,8.163,4.114,12.831,4.114c5.923,0,11.489-2.306,15.676-6.495c4.187-4.186,6.493-9.753,6.493-15.675 c0-5.921-2.306-11.489-6.493-15.678C40.998,130.996,26.931,131.01,18.289,139.645z M44.415,165.773 c-5.584,5.586-15.314,5.586-20.901,0c-2.791-2.793-4.328-6.502-4.328-10.45c0-3.947,1.537-7.66,4.328-10.453 c2.881-2.879,6.666-4.319,10.451-4.319c3.783,0,7.568,1.44,10.45,4.319c2.791,2.793,4.328,6.506,4.328,10.453 C48.743,159.271,47.206,162.98,44.415,165.773z"/> <path d="M83.606,83.51c-5.923,0-11.489,2.306-15.676,6.495c-4.187,4.186-6.493,9.753-6.493,15.675 c0,5.922,2.306,11.489,6.493,15.678c4.321,4.323,9.999,6.481,15.675,6.481c5.678,0,11.355-2.162,15.676-6.481 c4.187-4.189,6.493-9.757,6.493-15.678c0-5.921-2.306-11.489-6.493-15.675C95.093,85.816,89.528,83.51,83.606,83.51z M94.056,116.133c-5.759,5.759-15.135,5.759-20.901,0c-2.791-2.793-4.328-6.506-4.328-10.453c0-3.947,1.537-7.657,4.328-10.45 c5.586-5.586,15.315-5.586,20.901,0c2.791,2.793,4.328,6.502,4.328,10.45S96.847,113.341,94.056,116.133z"/> <path d="M94.056,53.428c-1.443-1.443-3.781-1.443-5.225,0l-7.839,7.837c-0.693,0.693-1.083,1.631-1.083,2.612 s0.39,1.92,1.083,2.612l41.804,41.802c0.722,0.722,1.667,1.083,2.612,1.083s1.891-0.361,2.612-1.083l7.837-7.837 c1.443-1.443,1.443-3.781,0-5.225L94.056,53.428z M125.409,100.455L88.831,63.878l2.612-2.612l36.577,36.577L125.409,100.455z"/> <path d="M44.415,118.746c-1.443-1.443-3.781-1.443-5.225,0c-1.444,1.443-1.443,3.781,0,5.225l26.126,26.128 c0.722,0.722,1.667,1.083,2.612,1.083c0.945,0,1.891-0.361,2.612-1.083c1.443-1.443,1.443-3.781,0-5.225L44.415,118.746z"/> <path d="M52.252,110.905c-1.443-1.443-3.781-1.443-5.225,0c-1.444,1.443-1.443,3.781,0,5.225l26.128,26.128 c0.722,0.722,1.667,1.083,2.612,1.083c0.945,0,1.891-0.361,2.612-1.083c1.443-1.443,1.443-3.781,0-5.225L52.252,110.905z"/> <path d="M109.732,53.428c-1.443-1.443-3.781-1.443-5.225,0c-1.444,1.443-1.443,3.781,0,5.225l26.126,26.128 c0.722,0.722,1.667,1.083,2.612,1.083s1.891-0.361,2.612-1.083c1.443-1.443,1.443-3.781,0-5.225L109.732,53.428z"/> <path d="M185.5,3.785c-1.443-1.443-3.781-1.443-5.225,0c-1.444,1.443-1.443,3.781,0,5.225c2.791,2.793,4.328,6.506,4.328,10.453 c0,3.947-1.537,7.657-4.328,10.45c-5.586,5.586-15.315,5.586-20.901,0c-0.001-0.001-0.004-0.002-0.006-0.004l-5.221-5.221 l-20.9,20.902l-11.744-11.744c-3.612-3.612-9.479-3.615-13.077-0.014c-3.601,3.601-3.596,9.468,0.014,13.077l33.936,33.94 c1.806,1.808,4.179,2.71,6.551,2.71c2.363,0,4.727-0.899,6.527-2.695c3.601-3.605,3.594-9.472-0.014-13.08l-16.969-16.968 l15.676-15.678v0.001c4.187,4.189,9.753,6.495,15.675,6.495c5.923,0,11.489-2.306,15.676-6.495 c4.187-4.186,6.493-9.753,6.493-15.675S189.687,7.974,185.5,3.785z M150.217,73.006c0.739,0.74,0.744,1.899,0.012,2.631 c-0.732,0.725-1.887,0.725-2.627-0.014l-33.936-33.94c-0.74-0.74-0.747-1.894-0.014-2.627c0.364-0.364,0.832-0.545,1.301-0.545 c0.474,0,0.953,0.188,1.326,0.559L150.217,73.006z"/> </g> </g> </g> </g>
</svg>